# xmcd
#
# Track frame offsets:
#	150
#	12355
#	30213
#	46868
#	72033
#	85947
#	98043
#	115230
#	131477
#	144199
#	158861
#	174050
#	189033
#	203142
#	219840
#	234873
#	252880
#	268129
#
# Disc length: 3786 seconds
#
# Revision: 0
# Processed by: cddbd v1.5.2PL0 Copyright (c) Steve Scherf et al.
# Submitted via: EasyCDDAExtractor 5.0.5.1
#
DISCID=d70ec812
DTITLE=Various Artist -  HOTT COUNTRY VOL 117
DYEAR=1900
DGENRE=Country
TTITLE0=Jason McCoy - She Aint Missin Missin Me
TTITLE1=Trace Adkins - HONKY TONK BADONKADONK
TTITLE2=Shedaisy - God Bless The Canadian Housewife
TTITLE3=Brooks and Dunn - BELIEVE [CD MIX)
TTITLE4=Montgomery - Gentry - She Dont Tell Me To
TTITLE5=Gretchen Wilson - I DON'T FEEL LIKE LOVING YOU TODAY [CD MIX)
TTITLE6=Lisa Hewitt - TAKE ME THERE
TTITLE7=Neal McCoy - Billies Got His Beer Goggles On
TTITLE8=Hot Apple Pie - WE'RE MAKIN' UP
TTITLE9=Steve Fox - DREAM ON
TTITLE10=Poverty Plainsmen - THE SECRET OF MY SUCCESS
TTITLE11=Erika Jo - I'M NOT LISA
TTITLE12=Brad Johner - Ive Got It Good
TTITLE13=Carrie Underwood - Jesus Take The Wheel
TTITLE14=Cross Canadian Ragweed - FIGHTIN' FOR
TTITLE15=Little Big Town - BOONDOCKS
TTITLE16=Sara Evans - CHEATIN'
TTITLE17=Ryan Shupe and The Rubberband - BANJO BOY
EXTD=
EXTT0=
EXTT1=
EXTT2=
EXTT3=
EXTT4=
EXTT5=
EXTT6=
EXTT7=
EXTT8=
EXTT9=
EXTT10=
EXTT11=
EXTT12=
EXTT13=
EXTT14=
EXTT15=
EXTT16=
EXTT17=
PLAYORDER=
